<svg width="36" height="36" viewBox="0 0 36 36" fill="none" xmlns="http://www.w3.org/2000/svg">
<path fill-rule="evenodd" clip-rule="evenodd" d="M24.7028 5C25.622 5.00061 26.541 5.00138 27.4601 5.00199C28.5323 5.14191 28.8781 5.20995 29.0003 5.23401C30.8266 5.65482 32.6812 5.87673 33.8367 8.21864C33.9709 9.05644 34.0152 9.02196 33.9956 9.87509C33.9507 10.0294 33.9058 10.1837 33.8609 10.3379L33.839 10.4827C33.7239 10.8445 33.2503 12.3318 30.8015 14.132C28.841 15.8822 20.9127 18.364 19.3328 18.9091C16.6614 19.7381 15.2046 20.5333 14.8662 20.7179C12.0797 21.4595 4.46061 26.8018 4.1391 29.0214C3.66388 29.4915 3.60121 30.094 3.48995 30.4042C3.38436 30.8101 3.4308 30.7939 3.44811 31.1913C3.47907 31.5243 3.49853 31.4936 3.43248 31.8285C2.88141 30.9022 2.86991 30.9433 2.82792 30.8626C2.58441 30.2922 2.61506 30.306 2.41186 29.6804C2.33569 29.4806 2.30581 29.5285 2.23164 29.3295L2.12345 28.5894C1.89725 27.601 2.0479 26.4048 2.06429 25.9809C2.08192 25.894 2.21693 25.2246 2.32527 24.9031C3.36183 22.316 4.84557 20.3929 9.56619 18.0755C10.4831 17.6231 13.7438 16.5413 14.111 16.4195C21.8512 14.0669 21.8581 14.1081 22.535 13.8108C24.7546 12.8355 24.6877 12.7771 24.8811 12.7017C25.1183 12.6092 29.9089 9.79065 25.7857 8.89186C24.6733 8.88947 24.7225 8.76216 23.165 8.89737L21.7933 9.00587C21.3857 9.05644 20.978 9.10702 20.5704 9.15774C20.3151 9.20693 20.0598 9.25613 19.8045 9.30532C18.8471 9.53151 18.8787 9.51496 17.5189 9.80551C16.2145 10.2128 16.2291 10.1902 14.9114 10.5549C14.641 10.6496 12.7516 11.3115 11.5506 11.7936C6.86475 13.6752 2.38657 17.3531 2.37263 18.6678C1.70662 18.5611 2.10552 18.2761 2.66318 16.9459C3.86954 14.0688 7.55589 11.1975 7.73458 11.0156C8.00429 10.9014 9.42505 9.89164 9.56895 9.78942C14.1159 7.32659 15.7776 6.64342 20.0939 5.69666C20.3494 5.64425 20.6049 5.59169 20.8605 5.53928C21.7853 5.3373 21.7553 5.373 22.7037 5.22972C23.1711 5.14543 24.5427 5.01517 24.7028 5Z" fill="#7E22CE"/>
<path fill-rule="evenodd" clip-rule="evenodd" d="M20.7189 19.5454C21.5123 19.4169 21.7957 19.3094 22.7352 19.6335C24.9454 20.3946 23.8494 21.7654 27.8551 26.3277C28.0933 26.5989 27.7716 26.9339 23.342 26.362C23.0082 26.2684 21.0583 25.7208 19.8432 23.8035C19.3481 23.332 19.4095 22.0121 17.206 21.461C16.6981 21.4426 16.715 21.5 16.2741 21.5324C15.5317 21.5529 15.8664 21.3978 16.4518 21.0993C16.8967 20.9812 17.1853 20.7756 17.9808 20.51C18.0752 20.4762 18.7 20.2524 19.1601 20.0829C19.2842 20.0383 20.1139 19.7402 20.7189 19.5454Z" fill="#7E22CE"/>
</svg>
